P3
# Created by GIMP version 2.10.34 PNM plug-in
33 32
255
2
1
1
0
0
0
0
0
0
0
0
0
0
0
0
0
0
0
0
0
0
0
0
0
0
0
0
0
0
0
18
15
11
88
67
33
159
125
66
197
164
104
193
164
111
182
167
133
150
154
137
147
158
151
144
164
164
135
151
144
125
140
138
91
103
102
0
0
1
0
0
0
0
0
0
0
0
0
0
0
0
0
1
3
1
2
3
0
0
0
0
0
0
0
0
0
40
42
48
2
1
1
0
0
0
0
0
0
0
0
0
0
0
0
0
0
0
0
0
0
0
0
0
35
28
15
108
83
37
172
136
67
198
171
122
179
174
140
147
160
149
120
149
142
141
166
158
144
169
161
154
175
165
160
181
173
170
188
179
171
186
179
171
188
180
144
157
152
81
90
87
22
26
29
0
0
0
0
0
0
0
0
0
0
0
0
0
0
0
0
0
0
0
0
0
0
2
2
3
2
1
0
0
0
0
0
0
0
0
0
0
0
0
0
0
0
41
36
23
137
110
63
185
150
80
212
191
152
187
194
177
122
144
136
124
154
147
124
152
144
156
176
168
153
173
163
160
180
171
166
184
173
172
188
179
180
194
186
177
191
184
180
195
188
176
191
182
170
185
177
144
158
150
73
82
80
0
0
0
0
0
0
0
0
0
0
0
0
0
0
0
0
0
0
0
1
2
4
3
2
0
0
0
0
0
0
0
0
0
0
0
0
89
74
47
202
157
76
220
189
142
215
212
190
153
164
150
136
136
113
168
171
149
113
140
134
141
165
155
150
171
161
149
172
160
161
181
171
171
186
173
184
197
187
186
197
189
188
199
192
183
196
189
178
192
184
177
190
177
186
199
188
169
181
169
99
110
103
2
2
2
0
0
0
0
0
0
0
0
1
0
0
0
2
3
4
2
2
1
0
0
0
0
0
0
0
0
0
88
67
33
196
148
61
226
204
165
216
213
189
131
145
135
95
126
127
160
143
107
174
174
152
115
146
143
136
161
153
145
168
158
145
167
154
150
172
160
169
180
162
201
199
180
213
211
196
197
201
188
186
199
191
182
197
187
181
192
180
183
196
183
180
192
179
171
184
173
98
107
102
1
2
3
0
0
0
0
0
0
0
0
0
0
0
0
1
0
0
0
0
0
0
0
0
101
80
42
196
149
59
220
198
161
218
215
193
131
141
130
88
117
119
96
109
104
200
170
118
194
192
169
142
160
149
138
163
156
127
151
139
134
157
145
151
173
161
187
171
130
214
197
160
213
203
183
202
189
169
193
201
190
184
196
186
181
194
179
180
194
175
182
195
179
179
191
179
168
178
170
74
79
77
0
0
0
0
0
0
0
0
0
0
0
0
0
0
0
0
0
0
75
58
31
203
154
64
218
189
141
220
216
194
144
148
130
124
117
97
125
115
92
162
129
81
187
167
131
160
165
146
201
207
191
117
141
131
126
152
142
129
156
144
147
169
157
204
175
117
216
193
145
208
194
173
222
197
173
215
214
202
197
200
186
184
193
173
183
192
169
182
192
169
180
192
180
180
191
183
143
152
147
41
44
43
0
0
0
0
0
0
0
0
0
0
0
0
5
7
9
179
134
60
213
165
86
222
218
196
184
179
153
177
147
99
210
185
139
179
149
101
169
146
100
184
157
109
208
172
96
208
182
122
189
186
161
126
153
143
140
167
159
162
180
163
197
164
96
221
192
131
186
186
165
177
178
161
187
178
155
212
204
184
218
206
182
209
197
176
192
194
167
176
188
175
185
197
189
174
185
178
114
122
118
0
0
0
0
0
0
0
0
0
0
0
0
99
78
40
210
157
63
218
202
173
212
204
176
195
159
94
223
181
110
185
166
124
112
137
129
93
125
124
101
133
129
164
157
121
177
159
107
226
189
123
191
190
168
124
152
144
138
158
140
188
153
91
218
194
138
207
201
177
185
166
130
208
196
172
209
195
169
208
196
175
211
190
170
201
189
170
191
196
178
162
178
168
162
179
170
155
171
163
12
14
18
0
0
0
0
0
0
19
22
27
167
128
58
220
175
93
220
216
198
199
180
137
214
167
79
171
159
125
94
109
102
163
166
142
119
150
147
102
129
123
153
152
123
104
134
128
192
161
91
223
203
167
155
165
145
129
150
134
182
145
81
212
181
120
212
186
153
205
164
147
209
185
169
217
205
192
212
201
187
204
194
175
177
173
152
210
204
191
170
179
164
156
174
165
141
161
151
59
69
69
0
0
0
0
0
0
112
97
63
213
164
76
227
193
140
226
218
188
187
162
114
206
183
131
85
109
104
87
119
120
169
163
130
115
147
145
131
148
134
154
158
133
100
131
126
129
136
113
211
171
98
196
181
144
128
136
115
171
139
89
207
181
124
216
192
160
200
170
155
172
150
135
213
193
179
209
191
174
199
178
154
162
171
148
187
177
157
213
207
192
146
163
152
143
162
150
65
75
72
0
0
0
0
0
0
156
129
84
225
175
85
214
196
166
215
207
180
173
149
105
201
180
139
91
115
109
91
123
123
159
157
125
118
142
131
142
147
126
142
147
129
156
158
138
159
140
96
203
168
115
204
176
147
198
179
150
178
142
92
214
184
125
225
209
178
185
171
156
138
160
147
174
137
119
194
162
142
196
174
156
198
183
164
200
191
176
190
190
176
149
166
156
152
168
156
37
45
41
0
0
0
0
0
0
180
145
87
223
172
76
208
198
170
200
193
167
206
197
169
171
171
142
163
150
111
105
134
132
106
120
105
148
152
130
157
159
135
104
127
120
150
133
101
158
134
101
165
135
85
178
155
120
177
150
106
175
140
91
212
179
122
215
191
164
198
172
154
117
139
124
179
170
127
192
157
117
203
169
146
201
186
163
201
186
164
115
127
114
152
153
127
121
103
73
69
76
75
0
0
0
0
0
0
193
151
76
219
173
77
220
214
197
215
208
184
215
191
148
158
158
131
89
111
105
162
157
126
96
121
116
167
146
101
179
162
120
94
92
78
158
128
91
171
124
91
167
132
80
214
189
145
188
154
99
171
130
81
206
170
111
216
202
168
183
149
139
189
177
156
167
108
76
183
118
94
179
131
103
189
160
129
183
148
125
172
162
146
187
173
142
128
97
54
101
104
95
0
0
0
15
16
18
193
150
67
225
190
128
221
216
195
212
205
178
213
193
153
172
158
117
127
134
114
90
108
98
148
139
108
190
143
68
174
139
79
170
145
103
210
193
161
173
139
109
163
135
94
192
166
136
197
167
122
152
115
72
200
164
105
200
181
140
150
159
143
190
156
139
206
177
156
185
142
115
208
180
163
198
163
146
199
168
149
184
159
133
183
178
154
129
97
57
125
137
127
3
6
10
13
17
22
193
148
62
216
188
144
212
199
179
203
194
162
219
211
178
130
135
113
112
117
99
164
154
115
185
153
104
169
133
84
168
136
91
193
174
138
214
206
182
118
129
119
142
118
95
187
136
93
190
151
106
165
123
84
162
136
92
173
162
126
167
165
149
181
160
138
180
122
96
200
158
140
199
157
137
201
175
156
201
179
163
177
172
158
148
139
116
170
151
122
133
150
139
110
120
114
13
15
18
193
145
50
204
175
121
202
193
170
204
183
151
213
209
186
164
164
140
98
95
80
154
129
90
150
114
71
165
132
86
192
162
113
214
193
157
203
191
158
168
154
119
172
154
116
208
184
153
184
140
99
160
137
115
150
128
101
153
146
128
153
170
156
170
160
145
189
140
126
211
184
167
214
197
182
205
175
158
204
189
175
198
190
175
163
177
163
118
141
132
129
154
149
161
171
168
7
8
8
201
159
79
219
194
150
211
204
175
210
181
133
216
203
165
170
143
107
167
132
86
192
159
113
179
148
101
200
174
132
192
162
115
199
171
126
173
165
135
110
128
117
146
140
108
222
191
128
165
140
99
135
158
143
114
141
130
126
152
140
135
159
146
167
147
132
203
160
143
203
183
169
214
208
195
207
187
168
204
193
180
211
200
186
177
188
174
140
161
151
121
146
141
162
177
169
69
78
77
182
145
76
227
196
150
217
211
188
207
178
127
213
196
160
156
128
94
160
123
77
153
119
76
188
167
126
216
205
181
201
183
148
188
168
128
167
165
140
168
165
141
173
166
127
215
190
131
187
169
138
144
157
140
101
132
127
110
141
137
147
171
162
177
138
123
199
160
141
203
185
170
217
215
203
209
194
179
207
197
181
214
202
188
191
197
183
143
163
154
125
150
142
163
179
169
141
149
139
172
142
80
219
183
118
215
213
193
220
191
135
211
197
156
156
129
91
179
151
107
169
138
95
178
161
124
167
163
139
135
138
120
183
167
125
140
133
98
155
149
112
189
169
124
224
201
155
198
181
149
137
148
128
132
157
145
112
140
131
146
156
145
199
163
151
204
158
141
210
186
170
209
203
187
208
194
177
203
187
158
201
191
165
198
193
171
147
165
153
129
152
140
163
178
169
167
176
164
146
123
93
223
176
84
221
215
194
217
190
138
222
200
154
186
159
115
180
155
103
188
175
142
156
137
95
102
111
94
145
149
128
158
145
112
131
137
119
126
125
98
217
191
134
223
204
170
195
187
156
124
151
142
129
156
144
108
132
121
181
156
142
198
161
145
200
156
138
215
203
189
209
195
179
214
201
185
210
196
179
198
183
156
169
160
130
133
148
138
88
113
102
127
150
141
133
147
138
101
89
61
219
174
91
217
204
170
224
214
184
221
190
135
188
159
112
104
121
113
131
142
130
162
153
121
83
107
98
161
161
133
109
130
122
184
178
151
139
152
135
201
178
115
226
213
179
181
183
157
138
164
152
123
150
142
148
145
136
209
171
158
197
159
142
199
172
159
211
197
182
204
189
171
215
208
193
214
206
193
180
162
137
128
153
149
104
132
130
88
109
109
73
96
92
30
39
39
42
61
73
196
155
82
221
195
148
221
215
191
226
191
122
215
202
166
164
158
137
149
148
124
178
157
119
116
128
115
173
167
136
108
141
139
137
135
112
159
160
132
225
188
102
217
211
186
158
175
159
146
167
153
144
158
146
188
140
127
189
131
117
184
148
130
214
200
188
215
201
183
211
188
166
216
209
194
197
182
162
170
116
91
146
168
164
53
64
70
0
0
0
0
0
0
0
0
0
5
9
15
90
70
40
190
148
78
217
214
196
223
206
164
220
195
144
165
156
128
172
161
121
106
118
103
95
114
105
171
159
119
117
147
146
114
138
132
202
168
102
229
200
146
199
193
160
154
174
159
166
170
155
173
137
120
186
145
131
201
159
147
209
185
168
211
195
178
209
195
180
207
194
170
180
125
101
170
81
47
188
125
91
121
142
141
6
7
10
0
0
0
7
12
19
9
9
10
0
0
0
0
0
0
111
82
27
211
184
139
222
218
193
226
187
111
216
199
155
170
153
109
116
119
97
89
119
116
174
163
133
107
137
134
162
161
129
226
189
108
215
204
177
190
168
146
196
167
151
208
178
159
196
156
139
212
191
177
202
171
157
204
189
176
203
184
163
198
183
162
180
126
94
181
103
72
160
131
99
170
158
141
154
150
141
47
47
47
0
0
0
0
0
0
1
1
2
0
1
2
0
0
0
46
36
20
197
151
65
223
208
175
224
210
173
211
171
88
205
168
107
207
183
141
148
145
121
174
153
111
192
175
125
229
188
100
216
194
140
176
182
157
171
175
160
175
158
135
204
185
160
179
172
160
163
166
156
167
173
159
127
127
114
121
80
53
131
105
87
120
105
81
155
106
68
157
102
67
134
79
49
111
66
47
12
17
25
0
0
0
0
0
0
0
0
0
0
0
0
0
0
0
0
1
1
105
83
48
214
168
83
221
216
197
204
194
159
161
140
98
197
179
145
195
171
118
217
164
66
205
159
78
198
174
124
143
157
139
137
165
155
147
169
157
135
157
142
167
182
169
151
171
163
156
176
165
148
170
159
149
170
157
135
156
139
114
138
126
150
166
153
182
160
135
211
144
100
207
152
126
0
0
0
0
0
0
0
0
0
0
0
0
0
0
0
0
0
0
0
0
0
0
0
0
4
10
16
126
98
55
205
167
98
223
215
188
189
160
106
207
177
116
208
189
137
212
185
126
205
185
138
195
184
150
144
149
125
145
160
141
155
176
160
149
170
156
151
174
166
157
180
171
164
182
169
161
180
167
156
177
165
155
174
163
147
167
155
149
170
160
134
151
141
115
85
69
146
99
80
0
0
0
0
0
0
0
0
0
0
0
0
0
0
0
0
0
0
0
0
0
0
0
0
0
0
0
15
17
21
112
84
42
175
140
85
183
147
98
216
188
127
210
189
139
194
171
115
156
131
85
175
159
112
83
107
94
114
138
125
177
186
164
146
167
154
152
175
166
156
178
170
160
178
167
163
180
167
157
176
166
154
175
165
145
166
153
153
170
160
41
49
52
0
0
1
0
0
0
0
0
0
2
4
8
0
0
0
0
0
0
0
0
0
2
8
19
0
0
0
0
0
0
0
0
0
0
0
0
0
0
0
34
25
11
105
82
46
140
108
59
187
161
116
191
174
133
134
142
117
91
108
91
115
138
122
118
144
126
164
162
120
164
176
158
132
163
156
140
167
163
140
166
158
148
169
155
161
180
170
158
179
169
167
183
173
174
185
177
48
52
52
0
0
0
0
0
0
0
0
0
0
0
0
0
0
0
0
0
0
1
2
2
0
0
0
0
0
0
0
0
0
0
0
0
0
0
0
0
0
0
0
0
0
0
0
0
40
30
10
91
74
48
153
139
112
203
192
160
203
199
170
173
177
144
176
176
138
190
178
137
117
143
135
108
139
136
111
141
140
104
132
125
97
121
110
117
140
137
120
141
137
138
159
152
162
176
169
55
62
60
0
0
0
0
0
0
0
0
0
0
0
0
0
0
0
0
0
0
0
0
1
15
29
42
1
2
4
0
0
0
1
1
2
0
0
0
0
0
0
0
0
0
0
0
0
0
0
0
0
0
0
34
25
14
113
91
47
171
136
84
170
145
101
179
161
114
186
171
124
158
145
106
127
122
100
81
101
101
70
96
116
44
59
76
5
11
20
3
11
19
0
0
0
3
8
14
0
0
0
3
9
20
0
0
1
0
0
0
0
0
0
0
0
0
0
0
0
0
0
0
