P3
# Created by GIMP version 2.10.34 PNM plug-in
31 32
255
0
0
0
0
0
0
0
0
0
0
0
0
0
0
0
0
0
0
0
0
0
0
0
0
0
0
0
0
0
0
0
0
0
0
0
0
0
0
0
115
115
115
24
24
24
0
0
0
114
114
114
132
132
132
0
0
0
109
109
109
24
24
24
0
0
0
0
0
0
0
0
0
0
0
0
0
0
0
0
0
0
0
0
0
0
0
0
0
0
0
0
0
0
0
0
0
0
0
0
0
0
0
0
0
0
0
0
0
0
0
0
0
0
0
0
0
0
0
0
0
0
0
0
42
42
42
163
163
163
0
0
0
134
134
134
137
137
137
0
0
0
169
169
169
136
136
136
0
0
0
176
176
176
113
113
113
0
0
0
73
73
73
0
0
0
0
0
0
0
0
0
0
0
0
0
0
0
0
0
0
0
0
0
0
0
0
0
0
0
0
0
0
0
0
0
0
0
0
0
0
0
0
0
0
0
0
0
0
0
0
124
124
124
0
0
0
0
0
0
192
192
192
0
0
0
144
144
144
165
165
165
0
0
0
186
186
186
178
178
178
106
106
106
205
205
205
75
75
75
0
0
0
199
199
199
0
0
0
0
0
0
0
0
0
0
0
0
0
0
0
0
0
0
0
0
0
0
0
0
0
0
0
0
0
0
0
0
0
0
0
0
0
0
0
0
0
0
0
0
0
0
0
0
148
148
148
113
113
113
0
0
0
168
168
168
138
138
138
173
173
173
209
209
209
117
117
117
170
170
170
177
177
177
193
193
193
217
217
217
81
81
81
141
141
141
163
163
163
0
0
0
161
161
161
80
80
80
0
0
0
0
0
0
0
0
0
0
0
0
0
0
0
0
0
0
0
0
0
0
0
0
0
0
0
0
0
0
97
97
97
98
98
98
0
0
0
108
108
108
190
190
190
137
137
137
161
161
161
162
162
162
185
185
185
201
201
201
200
200
200
217
217
217
206
206
206
220
220
220
207
207
207
133
133
133
220
220
220
75
75
75
139
139
139
159
159
159
0
0
0
0
0
0
0
0
0
0
0
0
0
0
0
0
0
0
0
0
0
0
0
0
0
0
0
0
0
0
0
0
0
58
58
58
218
218
218
94
94
94
64
64
64
196
196
196
191
191
191
185
185
185
203
203
203
212
212
212
197
197
197
226
226
226
212
212
212
228
228
228
208
208
208
216
216
216
209
209
209
177
177
177
156
156
156
195
195
195
105
105
105
77
77
77
189
189
189
122
122
122
0
0
0
0
0
0
0
0
0
0
0
0
0
0
0
0
0
0
57
57
57
54
54
54
0
0
0
146
146
146
235
235
235
169
169
169
185
185
185
202
202
202
195
195
195
218
218
218
184
184
184
175
175
175
206
206
206
204
204
204
198
198
198
216
216
216
223
223
223
203
203
203
201
201
201
195
195
195
195
195
195
69
69
69
212
212
212
112
112
112
0
0
0
0
0
0
0
0
0
0
0
0
0
0
0
0
0
0
0
0
0
33
33
33
162
162
162
138
138
138
42
42
42
93
93
93
223
223
223
189
189
189
201
201
201
195
195
195
237
237
237
165
165
165
224
224
224
209
209
209
225
225
225
226
226
226
218
218
218
240
240
240
177
177
177
195
195
195
184
184
184
176
176
176
192
192
192
182
182
182
0
0
0
110
110
110
131
131
131
0
0
0
0
0
0
0
0
0
0
0
0
0
0
0
0
0
0
93
93
93
169
169
169
182
182
182
146
146
146
213
213
213
165
165
165
190
190
190
200
200
200
237
237
237
213
213
213
225
225
225
193
193
193
191
191
191
219
219
219
237
237
237
214
214
214
201
201
201
181
181
181
212
212
212
226
226
226
217
217
217
145
145
145
152
152
152
182
182
182
94
94
94
0
0
0
0
0
0
0
0
0
0
0
0
176
176
176
155
155
155
1
1
1
146
146
146
190
190
190
172
172
172
198
198
198
211
211
211
178
178
178
232
232
232
214
214
214
196
196
196
140
140
140
137
137
137
192
192
192
183
183
183
157
157
157
204
204
204
233
233
233
223
223
223
198
198
198
210
210
210
198
198
198
187
187
187
189
189
189
0
0
0
0
0
0
0
0
0
0
0
0
0
0
0
0
0
0
63
63
63
174
174
174
219
219
219
171
171
171
192
192
192
185
185
185
173
173
173
216
216
216
253
253
253
249
249
249
212
212
212
145
145
145
113
113
113
0
0
0
0
0
0
0
0
0
96
96
96
124
124
124
180
180
180
225
225
225
183
183
183
195
195
195
186
186
186
205
205
205
157
157
157
57
57
57
144
144
144
182
182
182
63
63
63
0
0
0
0
0
0
0
0
0
0
0
0
98
98
98
196
196
196
208
208
208
186
186
186
196
196
196
226
226
226
222
222
222
194
194
194
168
168
168
169
169
169
171
171
171
192
192
192
3
3
3
220
220
220
171
171
171
152
152
152
184
184
184
188
188
188
220
220
220
198
198
198
206
206
206
220
220
220
205
205
205
210
210
210
157
157
157
5
5
5
0
0
0
0
0
0
160
160
160
158
158
158
175
175
175
188
188
188
206
206
206
211
211
211
236
236
236
192
192
192
220
220
220
200
200
200
212
212
212
133
133
133
163
163
163
213
213
213
203
203
203
0
0
0
237
237
237
240
240
240
214
214
214
131
131
131
207
207
207
220
220
220
231
231
231
234
234
234
193
193
193
172
172
172
115
115
115
76
76
76
22
22
22
0
0
0
0
0
0
84
84
84
166
166
166
194
194
194
206
206
206
206
206
206
203
203
203
214
214
214
243
243
243
191
191
191
224
224
224
190
190
190
216
216
216
210
210
210
208
208
208
224
224
224
106
106
106
242
242
242
204
204
204
198
198
198
161
161
161
207
207
207
185
185
185
204
204
204
179
179
179
192
192
192
208
208
208
211
211
211
189
189
189
224
224
224
128
128
128
0
0
0
0
0
0
0
0
0
90
90
90
171
171
171
205
205
205
205
205
205
208
208
208
214
214
214
207
207
207
190
190
190
236
236
236
200
200
200
220
220
220
235
235
235
196
196
196
110
110
110
235
235
235
210
210
210
227
227
227
204
204
204
227
227
227
166
166
166
213
213
213
201
201
201
195
195
195
208
208
208
203
203
203
166
166
166
107
107
107
0
0
0
120
120
120
175
175
175
169
169
169
203
203
203
222
222
222
204
204
204
180
180
180
201
201
201
201
201
201
188
188
188
152
152
152
120
120
120
128
128
128
202
202
202
193
193
193
189
189
189
117
117
117
215
215
215
183
183
183
143
143
143
190
190
190
97
97
97
172
172
172
213
213
213
208
208
208
205
205
205
218
218
218
85
85
85
91
91
91
124
124
124
51
51
51
0
0
0
125
125
125
145
145
145
169
169
169
164
164
164
210
210
210
228
228
228
244
244
244
214
214
214
182
182
182
181
181
181
105
105
105
97
97
97
174
174
174
193
193
193
181
181
181
169
169
169
214
214
214
139
139
139
0
0
0
0
0
0
57
57
57
186
186
186
226
226
226
182
182
182
174
174
174
184
184
184
206
206
206
213
213
213
181
181
181
135
135
135
0
0
0
0
0
0
79
79
79
151
151
151
183
183
183
219
219
219
225
225
225
181
181
181
222
222
222
184
184
184
172
172
172
176
176
176
164
164
164
169
169
169
203
203
203
170
170
170
161
161
161
231
231
231
214
214
214
79
79
79
65
65
65
159
159
159
169
169
169
220
220
220
191
191
191
210
210
210
199
199
199
161
161
161
68
68
68
0
0
0
0
0
0
0
0
0
178
178
178
192
192
192
201
201
201
193
193
193
212
212
212
203
203
203
205
205
205
236
236
236
209
209
209
179
179
179
163
163
163
164
164
164
204
204
204
224
224
224
230
230
230
235
235
235
172
172
172
186
186
186
174
174
174
150
150
150
169
169
169
191
191
191
218
218
218
189
189
189
195
195
195
187
187
187
196
196
196
167
167
167
87
87
87
0
0
0
0
0
0
72
72
72
50
50
50
137
137
137
198
198
198
185
185
185
180
180
180
206
206
206
249
249
249
227
227
227
213
213
213
172
172
172
161
161
161
165
165
165
216
216
216
239
239
239
172
172
172
41
41
41
141
141
141
165
165
165
163
163
163
196
196
196
234
234
234
208
208
208
234
234
234
194
194
194
198
198
198
167
167
167
154
154
154
135
135
135
0
0
0
0
0
0
0
0
0
107
107
107
191
191
191
208
208
208
220
220
220
224
224
224
200
200
200
178
178
178
216
216
216
226
226
226
189
189
189
158
158
158
197
197
197
233
233
233
187
187
187
197
197
197
194
194
194
185
185
185
162
162
162
202
202
202
222
222
222
201
201
201
178
178
178
180
180
180
195
195
195
181
181
181
58
58
58
0
0
0
0
0
0
0
0
0
0
0
0
137
137
137
174
174
174
120
120
120
81
81
81
199
199
199
185
185
185
203
203
203
196
196
196
225
225
225
246
246
246
233
233
233
178
178
178
200
200
200
224
224
224
223
223
223
226
226
226
128
128
128
56
56
56
194
194
194
220
220
220
210
210
210
191
191
191
171
171
171
183
183
183
183
183
183
158
158
158
211
211
211
164
164
164
2
2
2
0
0
0
0
0
0
0
0
0
0
0
0
0
0
0
158
158
158
194
194
194
190
190
190
189
189
189
192
192
192
183
183
183
225
225
225
238
238
238
183
183
183
210
210
210
175
175
175
0
0
0
50
50
50
223
223
223
204
204
204
238
238
238
227
227
227
173
173
173
192
192
192
179
179
179
189
189
189
173
173
173
97
97
97
0
0
0
88
88
88
61
61
61
0
0
0
0
0
0
0
0
0
0
0
0
138
138
138
182
182
182
174
174
174
154
154
154
195
195
195
198
198
198
215
215
215
188
188
188
186
186
186
231
231
231
241
241
241
184
184
184
152
152
152
172
172
172
218
218
218
218
218
218
238
238
238
198
198
198
199
199
199
187
187
187
209
209
209
151
151
151
174
174
174
197
197
197
91
91
91
0
0
0
0
0
0
0
0
0
0
0
0
0
0
0
59
59
59
110
110
110
37
37
37
0
0
0
147
147
147
206
206
206
208
208
208
189
189
189
185
185
185
182
182
182
217
217
217
218
218
218
227
227
227
242
242
242
227
227
227
214
214
214
160
160
160
227
227
227
205
205
205
191
191
191
195
195
195
211
211
211
57
57
57
20
20
20
116
116
116
140
140
140
0
0
0
0
0
0
0
0
0
0
0
0
0
0
0
0
0
0
0
0
0
0
0
0
89
89
89
201
201
201
95
95
95
174
174
174
183
183
183
198
198
198
179
179
179
216
216
216
205
205
205
212
212
212
205
205
205
219
219
219
209
209
209
177
177
177
205
205
205
203
203
203
194
194
194
190
190
190
161
161
161
225
225
225
128
128
128
0
0
0
0
0
0
0
0
0
0
0
0
0
0
0
0
0
0
0
0
0
0
0
0
0
0
0
152
152
152
181
181
181
89
89
89
107
107
107
175
175
175
180
180
180
181
181
181
185
185
185
197
197
197
216
216
216
213
213
213
201
201
201
198
198
198
180
180
180
200
200
200
214
214
214
146
146
146
182
182
182
191
191
191
79
79
79
71
71
71
186
186
186
1
1
1
0
0
0
0
0
0
0
0
0
0
0
0
0
0
0
0
0
0
0
0
0
0
0
0
0
0
0
0
0
0
0
0
0
154
154
154
174
174
174
121
121
121
196
196
196
135
135
135
190
190
190
200
200
200
186
186
186
212
212
212
195
195
195
194
194
194
158
158
158
159
159
159
152
152
152
110
110
110
181
181
181
105
105
105
0
0
0
0
0
0
0
0
0
0
0
0
0
0
0
0
0
0
0
0
0
0
0
0
0
0
0
0
0
0
0
0
0
0
0
0
0
0
0
96
96
96
191
191
191
35
35
35
130
130
130
146
146
146
108
108
108
188
188
188
145
145
145
171
171
171
169
169
169
130
130
130
187
187
187
160
160
160
80
80
80
185
185
185
0
0
0
101
101
101
99
99
99
0
0
0
0
0
0
0
0
0
0
0
0
0
0
0
0
0
0
0
0
0
0
0
0
0
0
0
0
0
0
0
0
0
0
0
0
0
0
0
0
0
0
6
6
6
0
0
0
167
167
167
0
0
0
80
80
80
199
199
199
95
95
95
159
159
159
170
170
170
57
57
57
178
178
178
123
123
123
0
0
0
176
176
176
0
0
0
0
0
0
0
0
0
0
0
0
0
0
0
0
0
0
0
0
0
0
0
0
0
0
0
0
0
0
0
0
0
0
0
0
0
0
0
0
0
0
0
0
0
0
0
0
0
0
0
0
0
0
0
0
0
60
60
60
0
0
0
130
130
130
137
137
137
0
0
0
137
137
137
149
149
149
0
0
0
139
139
139
99
99
99
0
0
0
17
17
17
0
0
0
0
0
0
0
0
0
0
0
0
0
0
0
0
0
0
0
0
0
0
0
0
0
0
0
0
0
0
0
0
0
0
0
0
0
0
0
0
0
0
0
0
0
0
0
0
0
0
0
0
0
0
0
0
0
0
0
0
0
0
0
57
57
57
6
6
6
0
0
0
111
111
111
42
42
42
0
0
0
95
95
95
0
0
0
0
0
0
0
0
0
0
0
0
0
0
0
0
0
0
0
0
0
0
0
0
0
0
0
0
0
0
0
0
0
0
0
0
0
0
0
